# xmcd CD database file
#
# Track frame offsets:
#	150
#	11265
#	24975
#	37622
#	52017
#	63734
#	78331
#	95701
#	108889
#	123141
#	136679
#	151561
#	170159
#	183019
#	196271
#	209551
#	222026
#	235641
#	249326
#	264876
#	277186
#	290481
#	303411
#	315616
#	327146
#	340636
#
# Disc length: 4693 seconds
#
# Revision: 0
# Processed by: cddbd v1.5.2PL0 Copyright (c) Steve Scherf et al.
# Submitted via: CDex 1.51
#
DISCID=5612531a
DTITLE=Charlie Parker - The Bebop Revolution 1947 - 1948
DYEAR=1948
DGENRE=Jazz
TTITLE0=Sippin' At Bells
TTITLE1=Dexterity
TTITLE2=Bongo Bop
TTITLE3=Dewey Square
TTITLE4=The Hymn
TTITLE5=Bird Of Paradise
TTITLE6=Embraceable You
TTITLE7=Bird Feathers
TTITLE8=Klac - Overseeds - Tene
TTITLE9=Scrapple From The Apple
TTITLE10=Mu Old Flame
TTITLE11=Out Of Nowhere
TTITLE12=Don't Blame Me
TTITLE13=Drifting On A Reed
TTITLE14=Quasimodo
TTITLE15=Charlie's Wig
TTITLE16=Bongo Beep
TTITLE17=Crazeology
TTITLE18=How Deep Is The Ocean ?
TTITLE19=Another Hair-Do
TTITLE20=Bluebird
TTITLE21=Klaunstance
TTITLE22=Bird Gets The Worm
TTITLE23=Barbados
TTITLE24=Ah-Leu-Cha
TTITLE25=Constellation
EXTD=YEAR: 1948
EXTT0=
EXTT1=
EXTT2=
EXTT3=
EXTT4=
EXTT5=
EXTT6=
EXTT7=
EXTT8=
EXTT9=
EXTT10=
EXTT11=
EXTT12=
EXTT13=
EXTT14=
EXTT15=
EXTT16=
EXTT17=
EXTT18=
EXTT19=
EXTT20=
EXTT21=
EXTT22=
EXTT23=
EXTT24=
EXTT25=
PLAYORDER=
